<svg id="mshd-new-dialog" viewBox="0 0 1024 1024"><path d="M757.76 430.08c-24.576 0-40.96-16.384-40.96-40.96v-81.92h-81.92c-24.576 0-40.96-16.384-40.96-40.96s16.384-40.96 40.96-40.96h81.92v-81.92c0-24.576 16.384-40.96 40.96-40.96s40.96 16.384 40.96 40.96v81.92h81.92c24.576 0 40.96 16.384 40.96 40.96s-16.384 40.96-40.96 40.96h-81.92v81.92c0 24.576-16.384 40.96-40.96 40.96z"></path><path d="M176.128 512C176.128 327.68 327.68 176.128 512 176.128c12.288 0 24.576 0 36.864 4.096 16.384 0 32.768-12.288 36.864-28.672 0-16.384-12.288-32.768-28.672-36.864-16.384 0-28.672-4.096-45.056-4.096-221.184 0-401.408 180.224-401.408 401.408 0 81.92 24.576 159.744 69.632 221.184l-45.056 98.304c-20.48 36.864 8.192 77.824 45.056 77.824H512c221.184 0 401.408-180.224 401.408-401.408 0-16.384 0-28.672-4.096-45.056 0-16.384-16.384-32.768-36.864-28.672-16.384 0-32.768 16.384-28.672 36.864 0 12.288 4.096 24.576 4.096 36.864 0 184.32-151.552 335.872-335.872 335.872H196.608l40.96-90.112c8.192-16.384 4.096-36.864-4.096-53.248-36.864-53.248-57.344-118.784-57.344-188.416z"></path><path d="M389.12 561.152c-16.384 0-32.768 16.384-32.768 32.768s16.384 32.768 32.768 32.768h245.76c16.384 0 32.768-16.384 32.768-32.768s-16.384-32.768-32.768-32.768H389.12zM356.352 430.08c0-16.384 16.384-32.768 32.768-32.768h81.92c16.384 0 32.768 16.384 32.768 32.768s-16.384 32.768-32.768 32.768H389.12c-16.384 0-32.768-16.384-32.768-32.768z"></path></svg>