<svg class="icon" viewBox="0 0 1024 1024" version="1.1" xmlns="http://www.w3.org/2000/svg" p-id="3511" width="35px" height="35px"><path d="M357.632 946.432c-69.888 0-135.68-27.136-185.344-76.8-49.664-49.664-76.8-115.712-76.8-185.856 0.256-70.144 27.648-135.936 77.568-185.344L567.552 107.52c71.936-71.168 188.416-70.912 259.84 0.512 34.816 34.816 54.016 81.152 54.016 130.304s-19.2 95.488-54.016 130.304L447.488 748.288c-41.472 41.472-108.8 41.472-150.016 0-19.968-19.968-30.976-46.592-30.976-75.008s11.008-55.04 30.976-75.008l298.496-298.496c12.032-12.032 31.488-12.032 43.52 0 12.032 12.032 12.032 31.488 0 43.52L340.992 641.792c-8.448 8.448-13.056 19.712-13.056 31.488s4.608 23.04 13.056 31.488c17.408 17.408 45.824 17.408 63.232 0L784.128 325.12c23.296-23.296 35.84-54.016 35.84-86.784 0-32.768-12.8-63.744-35.84-86.784-47.616-47.616-125.44-47.872-173.312-0.256l-394.24 391.168c-38.144 37.888-59.136 88.32-59.392 141.824 0 53.76 20.736 104.192 58.624 142.08 37.888 37.888 88.32 58.624 141.824 58.624s103.936-20.736 141.824-58.624l313.088-313.088c12.032-12.032 31.488-12.032 43.52 0 12.032 12.032 12.032 31.488 0 43.52L542.976 869.632c-49.664 49.408-115.456 76.8-185.344 76.8z" fill="#45b9f6" p-id="3512"></path></svg>